<mxfile host="app.diagrams.net" agent="Mozilla/5.0 (Windows NT 10.0; Win64; x64) AppleWebKit/537.36 (KHTML, like Gecko) Chrome/133.0.0.0 Safari/537.36" version="26.2.9">
  <diagram name="Trang-1" id="2u3HzUxA_0Sdk98EIYUb">
    <mxGraphModel dx="2002" dy="629" grid="1" gridSize="10" guides="1" tooltips="1" connect="1" arrows="1" fold="1" page="1" pageScale="1" pageWidth="827" pageHeight="1169" math="0" shadow="0">
      <root>
        <mxCell id="0" />
        <mxCell id="1" parent="0" />
        <mxCell id="5Q-mubHpLDqluZYi5czY-1" value="window 10 client&lt;div&gt;Wazhu agent&lt;/div&gt;" style="fontColor=#0066CC;verticalAlign=top;verticalLabelPosition=bottom;labelPosition=center;align=center;html=1;outlineConnect=0;fillColor=#CCCCCC;strokeColor=#6881B3;gradientColor=none;gradientDirection=north;strokeWidth=2;shape=mxgraph.networks.virtual_pc;" vertex="1" parent="1">
          <mxGeometry x="370" y="420" width="115" height="85" as="geometry" />
        </mxCell>
        <mxCell id="5Q-mubHpLDqluZYi5czY-14" style="edgeStyle=orthogonalEdgeStyle;rounded=0;orthogonalLoop=1;jettySize=auto;html=1;shape=link;fillColor=#f5f5f5;strokeColor=#666666;" edge="1" parent="1" source="5Q-mubHpLDqluZYi5czY-2" target="5Q-mubHpLDqluZYi5czY-3">
          <mxGeometry relative="1" as="geometry" />
        </mxCell>
        <mxCell id="5Q-mubHpLDqluZYi5czY-2" value="router" style="sketch=0;points=[[0.5,0,0],[1,0.5,0],[0.5,1,0],[0,0.5,0],[0.145,0.145,0],[0.8555,0.145,0],[0.855,0.8555,0],[0.145,0.855,0]];verticalLabelPosition=bottom;html=1;verticalAlign=top;aspect=fixed;align=center;pointerEvents=1;shape=mxgraph.cisco19.rect;prIcon=router;fillColor=#FAFAFA;strokeColor=#005073;" vertex="1" parent="1">
          <mxGeometry x="402.5" y="300" width="50" height="50" as="geometry" />
        </mxCell>
        <mxCell id="5Q-mubHpLDqluZYi5czY-15" style="edgeStyle=orthogonalEdgeStyle;rounded=0;orthogonalLoop=1;jettySize=auto;html=1;exitX=0;exitY=0.5;exitDx=0;exitDy=0;shape=link;" edge="1" parent="1" source="5Q-mubHpLDqluZYi5czY-3" target="5Q-mubHpLDqluZYi5czY-6">
          <mxGeometry relative="1" as="geometry" />
        </mxCell>
        <mxCell id="5Q-mubHpLDqluZYi5czY-16" value="2.receive event" style="edgeLabel;html=1;align=center;verticalAlign=middle;resizable=0;points=[];" vertex="1" connectable="0" parent="5Q-mubHpLDqluZYi5czY-15">
          <mxGeometry x="-0.0256" y="-1" relative="1" as="geometry">
            <mxPoint as="offset" />
          </mxGeometry>
        </mxCell>
        <mxCell id="5Q-mubHpLDqluZYi5czY-32" style="rounded=0;orthogonalLoop=1;jettySize=auto;html=1;shape=link;width=3;fillColor=#f8cecc;strokeColor=#b85450;" edge="1" parent="1" source="5Q-mubHpLDqluZYi5czY-3" target="5Q-mubHpLDqluZYi5czY-8">
          <mxGeometry relative="1" as="geometry">
            <Array as="points">
              <mxPoint x="370" y="140" />
            </Array>
          </mxGeometry>
        </mxCell>
        <mxCell id="5Q-mubHpLDqluZYi5czY-3" value="internet" style="image;aspect=fixed;perimeter=ellipsePerimeter;html=1;align=center;shadow=0;dashed=0;spacingTop=3;image=img/lib/active_directory/internet_cloud.svg;" vertex="1" parent="1">
          <mxGeometry x="402.5" y="180" width="50" height="31.5" as="geometry" />
        </mxCell>
        <mxCell id="5Q-mubHpLDqluZYi5czY-17" style="rounded=0;orthogonalLoop=1;jettySize=auto;html=1;shape=link;fillColor=#dae8fc;strokeColor=#6c8ebf;" edge="1" parent="1">
          <mxGeometry relative="1" as="geometry">
            <mxPoint x="249.10903926160836" y="183.20181485052876" as="sourcePoint" />
            <mxPoint x="411.42353106669384" y="48.313724111088504" as="targetPoint" />
          </mxGeometry>
        </mxCell>
        <mxCell id="5Q-mubHpLDqluZYi5czY-18" value="3.send alerts" style="edgeLabel;html=1;align=center;verticalAlign=middle;resizable=0;points=[];" vertex="1" connectable="0" parent="5Q-mubHpLDqluZYi5czY-17">
          <mxGeometry x="-0.0141" y="-2" relative="1" as="geometry">
            <mxPoint as="offset" />
          </mxGeometry>
        </mxCell>
        <mxCell id="5Q-mubHpLDqluZYi5czY-37" style="edgeStyle=orthogonalEdgeStyle;rounded=0;orthogonalLoop=1;jettySize=auto;html=1;shape=link;fillColor=#f8cecc;strokeColor=#b85450;" edge="1" parent="1">
          <mxGeometry relative="1" as="geometry">
            <mxPoint x="229.99987402336615" y="211.49999999999994" as="sourcePoint" />
            <mxPoint x="397.5" y="435.70000000000005" as="targetPoint" />
            <Array as="points">
              <mxPoint x="230" y="261.5" />
              <mxPoint x="350" y="261.5" />
              <mxPoint x="350" y="435.5" />
            </Array>
          </mxGeometry>
        </mxCell>
        <mxCell id="5Q-mubHpLDqluZYi5czY-38" value="8.Perform Response action" style="edgeLabel;html=1;align=center;verticalAlign=middle;resizable=0;points=[];" vertex="1" connectable="0" parent="5Q-mubHpLDqluZYi5czY-37">
          <mxGeometry x="0.0054" y="-1" relative="1" as="geometry">
            <mxPoint as="offset" />
          </mxGeometry>
        </mxCell>
        <mxCell id="5Q-mubHpLDqluZYi5czY-6" value="Wazhu Manager" style="image;aspect=fixed;perimeter=ellipsePerimeter;html=1;align=center;shadow=0;dashed=0;spacingTop=3;image=img/lib/active_directory/internet_cloud.svg;" vertex="1" parent="1">
          <mxGeometry x="210" y="180" width="50" height="31.5" as="geometry" />
        </mxCell>
        <mxCell id="5Q-mubHpLDqluZYi5czY-7" value="TheHive" style="image;aspect=fixed;perimeter=ellipsePerimeter;html=1;align=center;shadow=0;dashed=0;spacingTop=3;image=img/lib/active_directory/internet_cloud.svg;" vertex="1" parent="1">
          <mxGeometry x="665" y="170" width="50" height="31.5" as="geometry" />
        </mxCell>
        <mxCell id="5Q-mubHpLDqluZYi5czY-19" style="edgeStyle=orthogonalEdgeStyle;rounded=0;orthogonalLoop=1;jettySize=auto;html=1;shape=link;fillColor=#d5e8d4;strokeColor=#82b366;" edge="1" parent="1">
          <mxGeometry relative="1" as="geometry">
            <mxPoint x="427.00012597663385" y="37.299999999999955" as="sourcePoint" />
            <mxPoint x="427.9273795426934" y="201.5" as="targetPoint" />
            <Array as="points">
              <mxPoint x="427" y="120" />
              <mxPoint x="428" y="120" />
            </Array>
          </mxGeometry>
        </mxCell>
        <mxCell id="5Q-mubHpLDqluZYi5czY-20" value="4.Enrich IOCs" style="edgeLabel;html=1;align=center;verticalAlign=middle;resizable=0;points=[];" vertex="1" connectable="0" parent="5Q-mubHpLDqluZYi5czY-19">
          <mxGeometry x="-0.0054" y="-4" relative="1" as="geometry">
            <mxPoint as="offset" />
          </mxGeometry>
        </mxCell>
        <mxCell id="5Q-mubHpLDqluZYi5czY-22" style="rounded=0;orthogonalLoop=1;jettySize=auto;html=1;shape=link;fillColor=#dae8fc;strokeColor=#6c8ebf;" edge="1" parent="1" source="5Q-mubHpLDqluZYi5czY-8" target="5Q-mubHpLDqluZYi5czY-7">
          <mxGeometry relative="1" as="geometry" />
        </mxCell>
        <mxCell id="5Q-mubHpLDqluZYi5czY-23" value="5.send alerts" style="edgeLabel;html=1;align=center;verticalAlign=middle;resizable=0;points=[];" vertex="1" connectable="0" parent="5Q-mubHpLDqluZYi5czY-22">
          <mxGeometry x="-0.0183" y="-3" relative="1" as="geometry">
            <mxPoint x="1" as="offset" />
          </mxGeometry>
        </mxCell>
        <mxCell id="5Q-mubHpLDqluZYi5czY-25" style="edgeStyle=orthogonalEdgeStyle;rounded=0;orthogonalLoop=1;jettySize=auto;html=1;shape=link;fillColor=#ffe6cc;strokeColor=#d79b00;" edge="1" parent="1">
          <mxGeometry relative="1" as="geometry">
            <mxPoint x="440" y="51.5" as="sourcePoint" />
            <mxPoint x="464.9968503936882" y="196" as="targetPoint" />
            <Array as="points">
              <mxPoint x="440.5" y="116" />
              <mxPoint x="482.5" y="116" />
              <mxPoint x="482.5" y="196" />
            </Array>
          </mxGeometry>
        </mxCell>
        <mxCell id="5Q-mubHpLDqluZYi5czY-27" value="6.send email" style="edgeLabel;html=1;align=center;verticalAlign=middle;resizable=0;points=[];" vertex="1" connectable="0" parent="5Q-mubHpLDqluZYi5czY-25">
          <mxGeometry x="0.5186" y="1" relative="1" as="geometry">
            <mxPoint x="2" y="-24" as="offset" />
          </mxGeometry>
        </mxCell>
        <mxCell id="5Q-mubHpLDqluZYi5czY-33" style="edgeStyle=orthogonalEdgeStyle;rounded=0;orthogonalLoop=1;jettySize=auto;html=1;shape=link;fillColor=#f8cecc;strokeColor=#b85450;" edge="1" parent="1" source="5Q-mubHpLDqluZYi5czY-8" target="5Q-mubHpLDqluZYi5czY-6">
          <mxGeometry relative="1" as="geometry" />
        </mxCell>
        <mxCell id="5Q-mubHpLDqluZYi5czY-34" value="8.Send response action" style="edgeLabel;html=1;align=center;verticalAlign=middle;resizable=0;points=[];" vertex="1" connectable="0" parent="5Q-mubHpLDqluZYi5czY-33">
          <mxGeometry x="0.4379" y="-4" relative="1" as="geometry">
            <mxPoint as="offset" />
          </mxGeometry>
        </mxCell>
        <mxCell id="5Q-mubHpLDqluZYi5czY-8" value="Shuffile" style="image;aspect=fixed;perimeter=ellipsePerimeter;html=1;align=center;shadow=0;dashed=0;spacingTop=3;image=img/lib/active_directory/internet_cloud.svg;" vertex="1" parent="1">
          <mxGeometry x="402.5" y="20" width="50" height="31.5" as="geometry" />
        </mxCell>
        <mxCell id="5Q-mubHpLDqluZYi5czY-28" style="rounded=0;orthogonalLoop=1;jettySize=auto;html=1;entryX=1;entryY=1;entryDx=0;entryDy=0;shape=link;fillColor=#ffe6cc;strokeColor=#d79b00;" edge="1" parent="1" source="5Q-mubHpLDqluZYi5czY-9" target="5Q-mubHpLDqluZYi5czY-3">
          <mxGeometry relative="1" as="geometry">
            <Array as="points">
              <mxPoint x="540" y="210" />
            </Array>
          </mxGeometry>
        </mxCell>
        <mxCell id="5Q-mubHpLDqluZYi5czY-29" value="7.Send &amp;amp; receive email" style="edgeLabel;html=1;align=center;verticalAlign=middle;resizable=0;points=[];" vertex="1" connectable="0" parent="5Q-mubHpLDqluZYi5czY-28">
          <mxGeometry x="0.0429" y="-3" relative="1" as="geometry">
            <mxPoint as="offset" />
          </mxGeometry>
        </mxCell>
        <mxCell id="5Q-mubHpLDqluZYi5czY-30" style="edgeStyle=orthogonalEdgeStyle;rounded=0;orthogonalLoop=1;jettySize=auto;html=1;shape=link;fillColor=#f8cecc;strokeColor=#b85450;" edge="1" parent="1" source="5Q-mubHpLDqluZYi5czY-9" target="5Q-mubHpLDqluZYi5czY-3">
          <mxGeometry relative="1" as="geometry">
            <Array as="points">
              <mxPoint x="510" y="350" />
              <mxPoint x="510" y="196" />
            </Array>
          </mxGeometry>
        </mxCell>
        <mxCell id="5Q-mubHpLDqluZYi5czY-31" value="8.Send response Action" style="edgeLabel;html=1;align=center;verticalAlign=middle;resizable=0;points=[];" vertex="1" connectable="0" parent="5Q-mubHpLDqluZYi5czY-30">
          <mxGeometry x="0.1781" y="-3" relative="1" as="geometry">
            <mxPoint as="offset" />
          </mxGeometry>
        </mxCell>
        <mxCell id="5Q-mubHpLDqluZYi5czY-9" value="SOC analyst" style="fontColor=#0066CC;verticalAlign=top;verticalLabelPosition=bottom;labelPosition=center;align=center;html=1;outlineConnect=0;fillColor=#CCCCCC;strokeColor=#6881B3;gradientColor=none;gradientDirection=north;strokeWidth=2;shape=mxgraph.networks.virtual_pc;" vertex="1" parent="1">
          <mxGeometry x="600" y="340" width="115" height="85" as="geometry" />
        </mxCell>
        <mxCell id="5Q-mubHpLDqluZYi5czY-12" style="edgeStyle=orthogonalEdgeStyle;rounded=0;orthogonalLoop=1;jettySize=auto;html=1;entryX=0.5;entryY=1;entryDx=0;entryDy=0;entryPerimeter=0;fillColor=#f5f5f5;strokeColor=#666666;startArrow=classic;startFill=1;shape=link;" edge="1" parent="1" source="5Q-mubHpLDqluZYi5czY-1" target="5Q-mubHpLDqluZYi5czY-2">
          <mxGeometry relative="1" as="geometry" />
        </mxCell>
        <mxCell id="5Q-mubHpLDqluZYi5czY-13" value="1.send event" style="edgeLabel;html=1;align=center;verticalAlign=middle;resizable=0;points=[];" vertex="1" connectable="0" parent="5Q-mubHpLDqluZYi5czY-12">
          <mxGeometry x="-0.4971" y="-1" relative="1" as="geometry">
            <mxPoint as="offset" />
          </mxGeometry>
        </mxCell>
        <mxCell id="5Q-mubHpLDqluZYi5czY-40" style="rounded=0;orthogonalLoop=1;jettySize=auto;html=1;" edge="1" parent="1" target="5Q-mubHpLDqluZYi5czY-41">
          <mxGeometry relative="1" as="geometry">
            <mxPoint x="190" y="630" as="targetPoint" />
            <mxPoint x="80" y="689.9999999999998" as="sourcePoint" />
          </mxGeometry>
        </mxCell>
        <mxCell id="5Q-mubHpLDqluZYi5czY-39" value="Windows 10&lt;div&gt;Send event&lt;/div&gt;" style="text;html=1;align=center;verticalAlign=middle;resizable=0;points=[];autosize=1;strokeColor=none;fillColor=none;" vertex="1" parent="1">
          <mxGeometry x="-10" y="670" width="90" height="40" as="geometry" />
        </mxCell>
        <mxCell id="5Q-mubHpLDqluZYi5czY-43" style="edgeStyle=orthogonalEdgeStyle;rounded=0;orthogonalLoop=1;jettySize=auto;html=1;" edge="1" parent="1" source="5Q-mubHpLDqluZYi5czY-41">
          <mxGeometry relative="1" as="geometry">
            <mxPoint x="490" y="689.9999999999998" as="targetPoint" />
          </mxGeometry>
        </mxCell>
        <mxCell id="5Q-mubHpLDqluZYi5czY-41" value="Wazhu Manager&lt;div&gt;Trigger alert &amp;amp; Perform response action&lt;/div&gt;" style="text;html=1;align=center;verticalAlign=middle;resizable=0;points=[];autosize=1;strokeColor=none;fillColor=none;" vertex="1" parent="1">
          <mxGeometry x="200" y="670" width="230" height="40" as="geometry" />
        </mxCell>
        <mxCell id="5Q-mubHpLDqluZYi5czY-47" style="edgeStyle=orthogonalEdgeStyle;rounded=0;orthogonalLoop=1;jettySize=auto;html=1;" edge="1" parent="1" source="5Q-mubHpLDqluZYi5czY-42" target="5Q-mubHpLDqluZYi5czY-46">
          <mxGeometry relative="1" as="geometry" />
        </mxCell>
        <mxCell id="5Q-mubHpLDqluZYi5czY-49" style="edgeStyle=orthogonalEdgeStyle;rounded=0;orthogonalLoop=1;jettySize=auto;html=1;" edge="1" parent="1" source="5Q-mubHpLDqluZYi5czY-42" target="5Q-mubHpLDqluZYi5czY-48">
          <mxGeometry relative="1" as="geometry" />
        </mxCell>
        <mxCell id="5Q-mubHpLDqluZYi5czY-42" value="Shuffile&lt;div&gt;Receive Wazhu alert &amp;amp; Send response ations&lt;/div&gt;" style="text;html=1;align=center;verticalAlign=middle;resizable=0;points=[];autosize=1;strokeColor=none;fillColor=none;" vertex="1" parent="1">
          <mxGeometry x="500" y="670" width="260" height="40" as="geometry" />
        </mxCell>
        <mxCell id="5Q-mubHpLDqluZYi5czY-44" value="OSINT&lt;div&gt;Enrich IOCs&lt;/div&gt;" style="text;html=1;align=center;verticalAlign=middle;resizable=0;points=[];autosize=1;strokeColor=none;fillColor=none;" vertex="1" parent="1">
          <mxGeometry x="585" y="570" width="90" height="40" as="geometry" />
        </mxCell>
        <mxCell id="5Q-mubHpLDqluZYi5czY-45" style="rounded=0;orthogonalLoop=1;jettySize=auto;html=1;entryX=0.476;entryY=0.925;entryDx=0;entryDy=0;entryPerimeter=0;" edge="1" parent="1" source="5Q-mubHpLDqluZYi5czY-42" target="5Q-mubHpLDqluZYi5czY-44">
          <mxGeometry relative="1" as="geometry" />
        </mxCell>
        <mxCell id="5Q-mubHpLDqluZYi5czY-46" value="Email&lt;div&gt;Send email &amp;amp; response actions&lt;/div&gt;" style="text;html=1;align=center;verticalAlign=middle;resizable=0;points=[];autosize=1;strokeColor=none;fillColor=none;" vertex="1" parent="1">
          <mxGeometry x="820" y="670" width="190" height="40" as="geometry" />
        </mxCell>
        <mxCell id="5Q-mubHpLDqluZYi5czY-48" value="TheHive&lt;div&gt;Create alert in case management&lt;/div&gt;" style="text;html=1;align=center;verticalAlign=middle;resizable=0;points=[];autosize=1;strokeColor=none;fillColor=none;" vertex="1" parent="1">
          <mxGeometry x="530" y="783" width="200" height="40" as="geometry" />
        </mxCell>
      </root>
    </mxGraphModel>
  </diagram>
</mxfile>
